<?xml version="1.0" ?>
<!DOCTYPE svg  PUBLIC '-//W3C//DTD SVG 1.1//EN'  'http://www.w3.org/Graphics/SVG/1.1/DTD/svg11.dtd'>
<svg enable-background="new 0 0 128 128" id="Слой_1" version="1.1" viewBox="0 0 128 128" xml:space="preserve" xmlns="http://www.w3.org/2000/svg" xmlns:xlink="http://www.w3.org/1999/xlink"><path d="M114,112.5H14c-5.5,0-10-4.5-10-10v-65c0-5.5,4.5-10,10-10h100c5.5,0,10,4.5,10,10v65  C124,108,119.5,112.5,114,112.5z" fill="#FFFFFF"/><path d="M114,102.5H14c-5.5,0-10-4.5-10-10v10c0,5.5,4.5,10,10,10h100c5.5,0,10-4.5,10-10v-10  C124,98,119.5,102.5,114,102.5z" fill="#E5E6E6"/><path d="M4,27.5v-2c0-5.5,4.5-10,10-10h24.4c3.5,0,6.7,1.8,8.5,4.8l3.6,5.9" fill="#E5E6E6"/><path d="M14,114h100c6.3,0,11.5-5.2,11.5-11.5v-65c0-6.3-5.2-11.5-11.5-11.5H52.1c0-0.2-0.1-0.4-0.2-0.6l-3.6-5.9  c-2.1-3.4-5.8-5.5-9.8-5.5H14C7.7,14,2.5,19.2,2.5,25.5v2C2.5,28.3,3.2,29,4,29s1.5-0.7,1.5-1.5v-2c0-4.7,3.8-8.5,8.5-8.5h24.4  c2.9,0,5.7,1.5,7.2,4l3,5H14C7.7,26,2.5,31.2,2.5,37.5v65C2.5,108.8,7.7,114,14,114z M5.5,37.5c0-4.7,3.8-8.5,8.5-8.5h100  c4.7,0,8.5,3.8,8.5,8.5v65c0,4.7-3.8,8.5-8.5,8.5H14c-4.7,0-8.5-3.8-8.5-8.5V37.5z" fill="#4A374F"/></svg>